<?xml version="1.0" standalone="no"?><!DOCTYPE svg PUBLIC "-//W3C//DTD SVG 1.1//EN" "http://www.w3.org/Graphics/SVG/1.1/DTD/svg11.dtd"><svg t="1557245611705" class="icon" style="" viewBox="0 0 1024 1024" version="1.1" xmlns="http://www.w3.org/2000/svg" p-id="3908" xmlns:xlink="http://www.w3.org/1999/xlink" width="50" height="50"><defs><style type="text/css"></style></defs><path d="M520.1 64.5c-242.6 0-439.4 195.2-439.4 436 0 82.4 23 159.4 63 225.1L64.5 959.5l243.3-77.3c62.9 34.5 135.3 54.2 212.4 54.2 242.7 0 439.4-195.2 439.4-436-0.1-240.7-196.8-435.9-439.5-435.9zM738.6 666c-10.3 25.6-57.1 49-77.7 50.1-20.6 1.1-21.2 16-133.5-32.8-112.4-48.8-180-167.5-185.3-175.1-5.3-7.6-43.5-62-41.5-116.8 2.1-54.8 32.1-80.6 42.8-91.3 10.7-10.8 22.9-12.7 30.4-12.8 8.8-0.1 14.6-0.3 21.1 0 6.5 0.2 16.4-1.4 24.9 21.3 8.5 22.6 28.9 78.2 31.5 83.9 2.6 5.7 4.2 12.2 0.2 19.5-4 7.3-6.1 11.9-11.9 18.1-5.9 6.3-12.3 14.1-17.6 18.9-5.8 5.3-11.9 11.1-5.8 22.5 6.1 11.4 27.3 48.7 59.5 79.4 41.4 39.5 77.1 52.6 88.1 58.6s17.6 5.3 24.4-1.9c6.8-7.2 29.2-31.5 37.2-42.3 7.9-10.9 15.3-8.7 25.5-4.7 10.1 4.1 64.2 33.1 75.3 39.1 11 6 18.4 9 21 13.8 2.6 4.6 1.7 26.9-8.6 52.5z" p-id="3909" fill="#ffffff"></path></svg>